<svg width="70" height="70" viewBox="0 0 70 70" fill="none" xmlns="http://www.w3.org/2000/svg">
<circle cx="35" cy="35" r="35" fill="#102B3E"/>
<path d="M52 53.375V49C52 46.6793 51.0781 44.4537 49.4372 42.8128C47.7962 41.1718 45.5706 40.25 43.25 40.25H25.75C23.4294 40.25 21.2038 41.1718 19.5628 42.8128C17.9219 44.4537 17 46.6793 17 49V53.375" stroke="#CDDAE3" stroke-width="5" stroke-linecap="round" stroke-linejoin="round"/>
<path d="M34.5 31.5C39.3325 31.5 43.25 27.5825 43.25 22.75C43.25 17.9175 39.3325 14 34.5 14C29.6675 14 25.75 17.9175 25.75 22.75C25.75 27.5825 29.6675 31.5 34.5 31.5Z" stroke="#CDDAE3" stroke-width="5" stroke-linecap="round" stroke-linejoin="round"/>
</svg>
