<svg width="46" height="46" viewBox="0 0 46 46" fill="none" xmlns="http://www.w3.org/2000/svg">
<path d="M23.2601 16.8308C26.5347 16.8308 29.1892 19.4853 29.1892 22.7599C29.1892 26.0344 26.5347 28.689 23.2601 28.689C19.9856 28.689 17.3311 26.0344 17.3311 22.7599C17.3311 19.4853 19.9856 16.8308 23.2601 16.8308Z" stroke="#102B3E" stroke-width="2" stroke-linecap="round" stroke-linejoin="round"/>
<path d="M37.8851 16.8308C37.622 16.2347 37.5435 15.5734 37.6598 14.9323C37.776 14.2912 38.0817 13.6996 38.5373 13.2338L38.6559 13.1152C39.0234 12.7481 39.3149 12.3122 39.5139 11.8323C39.7128 11.3525 39.8152 10.8381 39.8152 10.3187C39.8152 9.79922 39.7128 9.28487 39.5139 8.80501C39.3149 8.32516 39.0234 7.88922 38.6559 7.52212C38.2888 7.15461 37.8528 6.86306 37.373 6.66414C36.8931 6.46522 36.3788 6.36284 35.8593 6.36284C35.3399 6.36284 34.8255 6.46522 34.3457 6.66414C33.8658 6.86306 33.4299 7.15461 33.0628 7.52212L32.9442 7.6407C32.4784 8.09633 31.8868 8.40197 31.2457 8.51821C30.6046 8.63446 29.9433 8.55598 29.3472 8.2929C28.7627 8.04237 28.2641 7.62638 27.913 7.09614C27.5618 6.5659 27.3734 5.94456 27.3709 5.30859V4.97261C27.3709 3.92428 26.9544 2.91889 26.2131 2.17761C25.4718 1.43633 24.4665 1.01988 23.4181 1.01988C22.3698 1.01988 21.3644 1.43633 20.6231 2.17761C19.8818 2.91889 19.4654 3.92428 19.4654 4.97261V5.15048C19.4501 5.80465 19.2384 6.43908 18.8577 6.9713C18.477 7.50353 17.9451 7.90892 17.3309 8.13479C16.7348 8.39788 16.0736 8.47635 15.4325 8.36011C14.7913 8.24386 14.1997 7.93822 13.7339 7.48259L13.6154 7.36401C13.2483 6.9965 12.8123 6.70495 12.3325 6.50603C11.8526 6.30711 11.3383 6.20473 10.8188 6.20473C10.2994 6.20473 9.785 6.30711 9.30515 6.50603C8.8253 6.70495 8.38936 6.9965 8.02226 7.36401C7.65474 7.73111 7.3632 8.16705 7.16428 8.64691C6.96536 9.12676 6.86297 9.64111 6.86297 10.1606C6.86297 10.68 6.96536 11.1944 7.16428 11.6742C7.3632 12.1541 7.65474 12.59 8.02226 12.9571L8.14084 13.0757C8.59646 13.5415 8.9021 14.1331 9.01835 14.7742C9.1346 15.4153 9.05612 16.0766 8.79304 16.6727C8.54251 17.2572 8.12652 17.7558 7.59628 18.1069C7.06604 18.4581 6.4447 18.6465 5.80873 18.649H5.47275C4.42442 18.649 3.41903 19.0655 2.67775 19.8068C1.93647 20.5481 1.52002 21.5534 1.52002 22.6018C1.52002 23.6501 1.93647 24.6555 2.67775 25.3968C3.41903 26.1381 4.42442 26.5545 5.47275 26.5545H5.65062C6.30478 26.5698 6.93922 26.7815 7.47144 27.1622C8.00366 27.5429 8.40906 28.0748 8.63493 28.689C8.89801 29.2851 8.97649 29.9463 8.86024 30.5874C8.74399 31.2286 8.43835 31.8202 7.98273 32.286L7.86415 32.4045C7.49664 32.7716 7.20509 33.2076 7.00617 33.6874C6.80725 34.1673 6.70486 34.6816 6.70486 35.2011C6.70486 35.7205 6.80725 36.2349 7.00617 36.7147C7.20509 37.1946 7.49664 37.6305 7.86415 37.9976C8.23125 38.3652 8.66719 38.6567 9.14704 38.8556C9.6269 39.0545 10.1413 39.1569 10.6607 39.1569C11.1801 39.1569 11.6945 39.0545 12.1744 38.8556C12.6542 38.6567 13.0902 38.3652 13.4573 37.9976L13.5758 37.8791C14.0416 37.4234 14.6332 37.1178 15.2743 37.0015C15.9155 36.8853 16.5767 36.9638 17.1728 37.2269H17.3309C17.9155 37.4774 18.414 37.8934 18.7652 38.4236C19.1163 38.9539 19.3048 39.5752 19.3073 40.2112V40.5472C19.3073 41.5955 19.7237 42.6009 20.465 43.3422C21.2063 44.0834 22.2117 44.4999 23.26 44.4999C24.3083 44.4999 25.3137 44.0834 26.055 43.3422C26.7963 42.6009 27.2127 41.5955 27.2127 40.5472V40.3693C27.2153 39.7333 27.4037 39.112 27.7549 38.5817C28.106 38.0515 28.6046 37.6355 29.1891 37.385C29.7852 37.1219 30.4465 37.0434 31.0876 37.1597C31.7287 37.2759 32.3203 37.5815 32.7861 38.0372L32.9047 38.1558C33.2718 38.5233 33.7077 38.8148 34.1876 39.0137C34.6674 39.2126 35.1818 39.315 35.7012 39.315C36.2207 39.315 36.735 39.2126 37.2149 39.0137C37.6947 38.8148 38.1307 38.5233 38.4978 38.1558C38.8653 37.7886 39.1568 37.3527 39.3558 36.8729C39.5547 36.393 39.6571 35.8786 39.6571 35.3592C39.6571 34.8397 39.5547 34.3254 39.3558 33.8455C39.1568 33.3657 38.8653 32.9297 38.4978 32.5626L38.3792 32.4441C37.9236 31.9783 37.6179 31.3867 37.5017 30.7456C37.3854 30.1044 37.4639 29.4432 37.727 28.8471V28.689C37.9775 28.1044 38.3935 27.6059 38.9238 27.2547C39.454 26.9036 40.0753 26.7151 40.7113 26.7126H41.0473C42.0956 26.7126 43.101 26.2962 43.8423 25.5549C44.5836 24.8136 45 23.8082 45 22.7599C45 21.7116 44.5836 20.7062 43.8423 19.9649C43.101 19.2236 42.0956 18.8072 41.0473 18.8072H40.8694C40.2334 18.8046 39.6121 18.6162 39.0819 18.265C38.5516 17.9139 38.1356 17.4153 37.8851 16.8308V16.8308Z" stroke="#102B3E" stroke-width="2" stroke-linecap="round" stroke-linejoin="round"/>
</svg>
